<?xml version="1.0" encoding="utf-8"?>
<!-- Generator: Adobe Illustrator 24.0.0, SVG Export Plug-In . SVG Version: 6.00 Build 0)  -->
<svg version="1.1" id="Layer_1" xmlns="http://www.w3.org/2000/svg" xmlns:xlink="http://www.w3.org/1999/xlink" x="0px" y="0px"
	 viewBox="0 0 950 117" style="enable-background:new 0 0 950 117;" xml:space="preserve">
<style type="text/css">
	.st0{clip-path:url(#SVGID_2_);}
	.st1{fill:#181553;}
	.st2{font-family:'OpenSans';}
	.st3{font-size:12.576px;}
</style>
<g>
	<defs>
		<rect id="SVGID_1_" y="0" width="950" height="117"/>
	</defs>
	<clipPath id="SVGID_2_">
		<use xlink:href="#SVGID_1_"  style="overflow:visible;"/>
	</clipPath>
	<g class="st0">
		<path class="st1" d="M138.5,6.6c2.2,0,3.8,0.5,4.9,1.5c1.2,1,1.8,2.3,1.8,4c0,0.9-0.2,2.1-0.7,3.5l-35.3,89.9
			c-0.6,1.5-1.5,2.6-2.7,3.4c-1.1,0.7-2.3,1-3.7,1c-2.4,0-4.3-1.1-5.9-3.2L82.4,85.6c-1.3-2.1-3.1-3.1-5.5-3.1c-2.3,0-4,1.1-5.3,3.3
			l-13.1,20.5c-1.5,2.4-3.5,3.5-6.1,3.5c-1.3,0-2.5-0.4-3.7-1.2c-1.1-0.8-2-1.9-2.7-3.4L9.6,15.8C9,14.3,8.7,13,8.7,11.9
			c0-1.7,0.6-3,1.8-3.8c1.3-1,3-1.5,5.2-1.5H138.5z"/>
		<path class="st1" d="M217.9,44.4l11.3,29.1l11.6-43.1h7.1l-15,55.8h-6.1l-11.2-29.4l-11.2,29.4h-6.1l-15-55.8h7.1L202,73.5
			l11.2-29.1H217.9z"/>
		<path class="st1" d="M267.3,61.4v24.8h-7V30.4h7v24.8h22.9V30.4h7v55.8h-7V61.4H267.3z"/>
		<path class="st1" d="M338.4,57L333,42.2L327.7,57H338.4z M336.1,30.4l20.2,55.8H349L340.6,63h-15.2l-8.6,23.2h-7.3L330,30.4H336.1
			z"/>
		<path class="st1" d="M383.8,36.5v49.7h-7V36.5h-13.3v-6.1h33.6v6.1H383.8z"/>
		<path class="st1" d="M464.4,57L459,42.2L453.6,57H464.4z M462.1,30.4l20.2,55.8H475L466.6,63h-15.2l-8.6,23.2h-7.3L456,30.4H462.1
			z"/>
		<path class="st1" d="M523.9,86.2V30.4h7v49.7h20v6.1H523.9z"/>
		<path class="st1" d="M590.2,29.7c8.1,0,15,2.8,20.6,8.4c5.6,5.6,8.5,12.3,8.5,20.1c0,7.8-2.8,14.6-8.5,20.2
			c-5.6,5.6-12.5,8.4-20.6,8.4c-8.1,0-15-2.8-20.6-8.4c-5.6-5.6-8.4-12.4-8.4-20.2c0-7.8,2.8-14.5,8.4-20.1
			C575.3,32.5,582.1,29.7,590.2,29.7z M590.2,35.8c-5.9,0-11.1,2.2-15.4,6.5c-4.3,4.3-6.5,9.6-6.5,15.9c0,6.3,2.2,11.6,6.5,16
			c4.3,4.3,9.5,6.5,15.4,6.5c6,0,11.1-2.2,15.5-6.5c4.3-4.3,6.5-9.7,6.5-16c0-6.3-2.2-11.5-6.5-15.9C601.3,38,596.2,35.8,590.2,35.8
			z"/>
		<path class="st1" d="M673.7,73.9l4.9,4.3c-6.3,5.7-13.2,8.6-20.7,8.6c-8.1,0-15-2.8-20.6-8.4c-5.6-5.6-8.4-12.3-8.4-20.2
			c0-7.8,2.8-14.4,8.4-20.1c5.6-5.6,12.5-8.4,20.6-8.4c7.5,0,14.5,2.9,20.7,8.6l-4.9,4.3c-5.1-4.5-10.4-6.8-15.9-6.8
			c-5.9,0-11.1,2.2-15.4,6.5c-4.3,4.3-6.5,9.6-6.5,15.9c0,6.3,2.2,11.6,6.5,15.9c4.3,4.3,9.5,6.5,15.4,6.5
			C663.3,80.7,668.5,78.5,673.7,73.9z"/>
		<path class="st1" d="M715.7,57l-5.3-14.8L704.9,57H715.7z M713.4,30.4l10.1,27.9l10.1,27.9h-7.3L717.9,63h-15.2l-8.6,23.2h-7.3
			l20.5-55.8H713.4z"/>
		<path class="st1" d="M761.1,36.5v49.7h-7V36.5h-13.3v-6.1h33.6v6.1H761.1z"/>
		<path class="st1" d="M796.2,30.4v55.8h-7V30.4H796.2z"/>
		<path class="st1" d="M841.1,29.7c8.1,0,15,2.8,20.6,8.4c5.6,5.6,8.5,12.3,8.5,20.1c0,7.8-2.8,14.6-8.5,20.2
			c-5.6,5.6-12.5,8.4-20.6,8.4c-8.1,0-15-2.8-20.6-8.4c-5.6-5.6-8.4-12.4-8.4-20.2c0-7.8,2.8-14.5,8.4-20.1
			C826.1,32.5,833,29.7,841.1,29.7z M841.1,35.8c-5.9,0-11.1,2.2-15.4,6.5c-4.3,4.3-6.5,9.6-6.5,15.9c0,6.3,2.2,11.6,6.5,16
			c4.3,4.3,9.5,6.5,15.4,6.5c6,0,11.1-2.2,15.5-6.5c4.3-4.3,6.5-9.7,6.5-16c0-6.3-2.2-11.5-6.5-15.9C852.2,38,847,35.8,841.1,35.8z"
			/>
		<path class="st1" d="M892.4,30.4L924.2,75V30.4h7v55.8h-7.8l-31-43.4v43.4h-7V30.4H892.4z"/>
		<text transform="matrix(1 0 0 1 931.5342 40.4581)" class="st1 st2 st3">®</text>
	</g>
</g>
</svg>
